<svg xmlns="http://www.w3.org/2000/svg" width="73.371" height="50.966" viewBox="0 0 73.371 50.966">
  <defs>
    <style>
      .cls-1 {
        fill: none;
        stroke: teal;
        stroke-width: 3px;
      }

      .cls-2 {
        fill: teal;
      }
    </style>
  </defs>
  <g id="Grupo_1" data-name="Grupo 1" transform="translate(-17.629 -21)">
    <path id="Caminho_3" data-name="Caminho 3" class="cls-1" d="M26.7,37.049,13.261,48.026,26.7,59" transform="translate(6.739 -1.421)"/>
    <path id="Caminho_4" data-name="Caminho 4" class="cls-2" d="M25.5,26.35A2.55,2.55,0,0,1,24,28.66a2.62,2.62,0,0,1-1,.24H20.4V23.8H23a2.55,2.55,0,0,1,2.5,2.55ZM51,25.5a25.48,25.48,0,1,1-2.94-11.9H6.8V17H9.35a.85.85,0,0,1,.85.85V39.1h3.4V17.85a.85.85,0,0,1,.85-.85h35.1A25.46,25.46,0,0,1,51,25.5ZM25.47,31.74A6,6,0,0,0,23,20.4H17.9a.85.85,0,0,0-.85.85V39.1h3.4v-6a.85.85,0,0,1,.85-.85H22l3.17,6.8H28.9Zm17-11.34H39.1v6.8a.85.85,0,0,1-.85.85h-3.4A.85.85,0,0,1,34,27.2V20.4H30.6V39.1H34V32.3a.85.85,0,0,1,.85-.85h3.4a.85.85,0,0,1,.85.85v6.8h3.4Z" transform="translate(40 21.002)"/>
  </g>
</svg>
